<svg width="580" height="429" viewBox="0 0 580 429" fill="none" xmlns="http://www.w3.org/2000/svg">
<path d="M450.382 155.123C429.974 127.191 412.342 97.36 385.077 73.7667C344.261 38.3768 282.711 20.6141 224.426 27.3937C204.508 29.6988 184.753 34.8514 168.427 44.6141C152.101 54.3768 139.366 69.0209 136.427 85.6989C133.325 103.19 140.672 120.953 137.57 138.445C132.346 169.089 97.734 189.292 76.02 214.377C60.1835 232.682 50.8775 254.92 49.4081 277.564C47.7755 303.598 58.7141 332.208 85.6525 345.089C116.019 359.598 154.713 349.699 188.508 357.021C223.283 364.479 250.058 387.123 281.078 401.496C328.914 423.598 391.771 404.886 420.178 367.869C433.239 350.784 435.688 330.174 446.627 312.276C453.647 300.886 467.035 289.225 478.79 281.089C495.932 269.157 517.483 260.208 527.116 243.394C533.156 233.089 533.646 221.021 530.381 209.767C526.136 194.852 514.381 181.292 498.708 173.428C480.912 164.886 462.137 171.258 450.382 155.123Z" stroke="url(#paint0_linear)" stroke-width="2" stroke-miterlimit="10"/>
<path d="M445.157 163.801C426.056 137.631 409.566 109.699 384.097 87.7327C345.893 54.7835 288.262 38.1055 233.895 44.3428C215.283 46.5123 196.834 51.2581 181.488 60.4784C166.141 69.5632 154.386 83.3937 151.447 98.8514C148.509 115.123 155.366 131.801 152.59 148.207C147.692 176.953 115.366 195.665 95.1216 219.258C80.2646 236.479 71.6117 257.225 70.1423 278.377C68.5097 302.648 78.7953 329.496 104.101 341.564C132.509 355.123 168.59 345.903 200.263 352.682C232.752 359.598 257.731 380.886 286.792 394.31C331.526 415.055 390.301 397.564 416.913 362.852C429.158 346.852 431.28 327.598 441.729 310.92C448.259 300.208 460.831 289.36 471.769 281.767C487.769 270.648 507.85 262.242 516.993 246.513C522.544 236.886 523.034 225.496 520.095 215.055C516.177 201.089 505.075 188.479 490.381 181.157C473.728 172.885 456.096 178.852 445.157 163.801Z" stroke="url(#paint1_linear)" stroke-width="2" stroke-miterlimit="10"/>
<path d="M439.77 172.479C421.974 148.207 406.464 122.038 382.954 101.699C347.526 71.0547 293.813 55.4614 243.038 61.4276C225.732 63.4615 208.589 67.9361 194.222 76.3428C180.018 84.8852 168.916 97.631 166.304 112.14C163.529 127.326 169.896 142.919 167.284 158.106C162.712 184.818 132.672 202.309 113.734 224.275C100.183 240.14 92.0196 259.53 90.7135 279.191C89.2441 301.835 98.8766 326.784 122.223 338.038C148.672 350.649 182.304 342.106 211.855 348.343C242.058 354.852 265.405 374.649 292.507 387.123C334.139 406.377 388.832 390.106 413.648 357.835C425.076 342.92 427.035 325.021 436.668 309.428C442.709 299.53 454.463 289.36 464.586 282.309C479.443 272.004 498.218 264.14 506.708 249.496C511.932 240.547 512.422 229.97 509.646 220.208C505.891 207.191 495.769 195.394 482.055 188.614C466.382 181.021 450.055 186.58 439.77 172.479Z" stroke="url(#paint2_linear)" stroke-width="2" stroke-miterlimit="10"/>
<path d="M434.546 181.292C418.056 158.784 403.689 134.513 381.975 115.801C349.322 87.4616 299.364 72.9531 252.507 78.5124C236.508 80.4107 220.508 84.4785 207.447 92.3429C194.223 100.207 184.1 112.004 181.651 125.428C179.039 139.529 185.08 153.902 182.631 168.004C178.386 192.818 150.468 208.953 132.999 229.292C120.264 244.072 112.754 261.97 111.612 280.14C110.305 301.021 119.122 324.208 140.836 334.648C165.325 346.31 196.508 338.445 223.773 344.276C251.854 350.242 273.405 368.547 298.384 380.208C336.914 398.106 387.526 383.055 410.546 353.089C421.158 339.259 422.954 322.716 431.933 308.343C437.648 299.123 448.423 289.767 457.892 283.259C471.606 273.631 489.075 266.445 496.912 252.886C501.647 244.614 502.137 234.852 499.524 225.767C496.096 213.835 486.627 202.852 473.892 196.479C459.035 189.021 444.015 194.174 434.546 181.292Z" stroke="url(#paint3_linear)" stroke-width="2" stroke-miterlimit="10"/>
<path d="M429.158 189.97C413.974 169.224 400.75 146.987 380.832 129.631C350.791 103.733 304.915 90.3091 261.813 95.3261C247.119 97.0888 232.426 100.885 220.344 108.072C208.263 115.258 198.794 126.241 196.508 138.58C194.222 151.462 199.61 164.75 197.324 177.631C193.406 200.411 167.774 215.326 151.774 233.903C140.019 247.462 133.162 264.004 132.019 280.682C130.713 299.937 138.876 321.225 158.957 330.716C181.488 341.428 210.059 334.242 235.201 339.53C260.997 345.089 280.752 361.903 303.772 372.479C339.2 388.886 385.73 375.055 406.791 347.53C416.586 334.784 418.219 319.598 426.382 306.309C431.607 297.903 441.566 289.225 450.219 283.259C462.953 274.445 478.953 267.801 486.137 255.326C490.545 247.733 490.871 238.648 488.585 230.377C485.483 219.394 476.667 209.225 465.076 203.53C451.851 197.157 437.811 201.903 429.158 189.97Z" stroke="url(#paint4_linear)" stroke-width="2" stroke-miterlimit="10"/>
<path d="M423.933 198.648C410.056 179.801 397.975 159.326 379.689 143.597C352.424 120.004 310.466 107.665 270.956 112.275C257.568 113.902 244.181 117.292 233.079 123.936C221.977 130.58 213.487 140.479 211.365 151.733C209.242 163.53 214.14 175.597 212.181 187.394C208.589 208.14 185.243 221.835 170.549 238.784C159.774 251.259 153.57 266.174 152.59 281.496C151.447 299.123 158.794 318.513 177.08 327.191C197.651 336.954 223.773 330.31 246.63 335.191C270.14 340.208 288.262 355.53 309.323 365.293C341.649 380.344 384.26 367.598 403.362 342.513C412.178 330.988 413.811 317.021 421.321 304.954C426.056 297.225 435.035 289.36 443.035 283.801C454.627 275.801 469.157 269.699 475.688 258.309C479.769 251.394 480.096 243.123 477.973 235.665C475.035 225.631 467.198 216.411 456.423 211.123C444.504 205.157 431.77 209.496 423.933 198.648Z" stroke="url(#paint5_linear)" stroke-width="2" stroke-miterlimit="10"/>
<path d="M418.546 207.326C405.975 190.242 394.873 171.665 378.546 157.563C354.057 136.411 315.853 125.021 280.262 129.224C268.017 130.58 255.936 133.835 245.977 139.801C236.018 145.767 228.181 154.716 226.385 164.886C224.426 175.597 228.998 186.445 227.202 197.157C223.936 216.004 202.875 228.208 189.488 243.665C179.855 254.92 174.141 268.479 173.162 282.31C172.182 298.174 178.876 315.801 195.365 323.666C213.977 332.479 237.65 326.513 258.385 330.988C279.609 335.598 296.099 349.428 315.037 358.242C344.261 371.801 382.791 360.411 400.097 337.632C408.097 327.191 409.566 314.581 416.26 303.598C420.505 296.547 428.668 289.496 435.852 284.479C446.301 277.157 459.525 271.733 465.402 261.428C468.994 255.055 469.321 247.733 467.362 240.953C464.749 231.869 457.566 223.598 447.933 218.716C437.321 213.292 425.729 217.089 418.546 207.326Z" stroke="url(#paint6_linear)" stroke-width="2" stroke-miterlimit="10"/>
<path d="M413.158 216.004C402.057 200.682 391.934 184.004 377.404 171.53C355.527 152.682 321.405 142.513 289.405 146.174C278.466 147.394 267.691 150.241 258.712 155.53C249.732 160.818 242.875 168.953 241.079 178.038C239.283 187.53 243.365 197.292 241.732 206.919C238.794 223.733 219.855 234.716 208.1 248.547C199.447 258.581 194.386 270.784 193.57 283.123C192.59 297.36 198.631 313.089 213.488 320.14C230.141 328.14 251.202 322.716 269.814 326.649C288.915 330.716 303.446 343.191 320.425 351.055C346.547 363.123 380.996 352.954 396.506 332.615C403.689 323.259 404.995 312.004 411.036 302.242C414.954 296.004 422.138 289.632 428.668 285.157C437.974 278.648 449.893 273.767 455.117 264.547C458.382 258.852 458.709 252.208 456.913 246.242C454.627 238.106 448.097 230.648 439.607 226.309C429.975 221.292 419.689 224.818 413.158 216.004Z" stroke="url(#paint7_linear)" stroke-width="2" stroke-miterlimit="10"/>
<path d="M407.934 224.682C398.138 211.258 389.158 196.343 376.424 185.496C357.322 168.953 326.955 159.869 298.874 163.123C289.242 164.208 279.772 166.648 271.772 171.394C263.936 176.14 257.732 183.191 256.262 191.191C254.793 199.597 258.222 208.275 256.916 216.682C254.303 231.462 237.65 241.225 227.202 253.292C219.528 262.106 215.12 272.818 214.304 283.801C213.488 296.276 218.712 310.242 231.773 316.344C246.467 323.394 265.079 318.649 281.405 322.038C298.221 325.699 311.119 336.547 326.139 343.598C349.159 354.31 379.526 345.225 393.24 327.327C399.607 319.055 400.75 309.157 405.975 300.479C409.403 294.92 415.77 289.36 421.485 285.428C429.811 279.733 440.097 275.394 444.831 267.259C447.77 262.242 447.933 256.411 446.464 251.123C444.341 243.937 438.79 237.428 431.117 233.631C422.627 229.428 413.648 232.411 407.934 224.682Z" stroke="url(#paint8_linear)" stroke-width="2" stroke-miterlimit="10"/>
<path d="M402.546 233.36C394.056 221.699 386.22 208.818 375.281 199.326C358.955 185.224 332.506 177.089 308.18 179.936C299.854 180.885 291.69 183.055 284.833 187.123C277.976 191.191 272.752 197.292 271.446 204.343C270.14 211.665 273.242 219.123 271.936 226.445C269.65 239.326 255.283 247.733 246.303 258.174C239.773 265.903 235.855 275.123 235.201 284.614C234.548 295.462 239.12 307.394 250.385 312.818C263.119 318.92 279.282 314.716 293.323 317.835C307.854 320.954 319.119 330.445 332.016 336.411C351.934 345.632 378.22 337.903 390.138 322.309C395.689 315.123 396.669 306.581 401.24 299.123C404.179 294.377 409.73 289.496 414.627 286.106C421.811 281.089 430.79 277.428 434.872 270.377C437.321 266.038 437.647 261.021 436.178 256.411C434.382 250.174 429.484 244.479 422.954 241.225C415.444 237.428 407.607 240.14 402.546 233.36Z" stroke="url(#paint9_linear)" stroke-width="2" stroke-miterlimit="10"/>
<path d="M397.322 242.038C390.138 232.14 383.281 221.157 374.302 213.292C360.751 201.496 338.057 194.58 317.486 196.886C310.466 197.699 303.446 199.462 297.731 202.987C292.017 206.377 287.446 211.665 286.466 217.496C285.323 223.597 287.936 229.97 286.956 236.072C285.16 246.919 272.915 253.97 265.242 262.92C259.691 269.428 256.426 277.292 255.773 285.292C255.12 294.513 259.038 304.547 268.507 309.157C279.283 314.309 292.833 310.784 304.915 313.36C317.16 315.937 326.629 324.072 337.567 329.089C354.384 336.954 376.587 330.309 386.71 317.157C391.281 311.055 392.097 303.869 396.016 297.496C398.465 293.428 403.199 289.36 407.281 286.513C413.322 282.309 420.995 279.191 424.423 273.225C426.546 269.564 426.709 265.36 425.566 261.428C424.097 256.14 419.852 251.394 414.301 248.547C408.097 245.564 401.403 247.733 397.322 242.038Z" stroke="url(#paint10_linear)" stroke-width="2" stroke-miterlimit="10"/>
<path d="M391.934 250.716C386.057 242.716 380.342 233.496 373.159 227.258C362.22 217.767 343.608 211.936 326.792 213.835C321.078 214.513 315.364 216.004 310.629 218.852C305.894 221.699 302.303 225.902 301.323 230.648C300.344 235.665 302.466 240.818 301.65 245.835C300.18 254.648 290.221 260.479 283.854 267.801C279.283 273.089 276.507 279.462 276.181 285.97C275.691 293.428 278.793 301.699 286.629 305.496C295.446 309.699 306.548 306.852 316.343 308.886C326.302 311.055 334.139 317.564 343.118 321.767C356.996 328.14 375.118 322.716 383.281 312.004C387.036 307.123 387.689 301.157 390.955 296.004C392.914 292.75 396.832 289.36 400.261 287.055C405.158 283.665 411.362 281.089 414.301 276.208C416.097 273.225 416.097 269.699 415.281 266.581C413.975 262.242 410.709 258.309 406.138 256.14C400.75 253.564 395.363 255.462 391.934 250.716Z" stroke="url(#paint11_linear)" stroke-width="2" stroke-miterlimit="10"/>
<path d="M386.71 259.394C382.138 253.157 377.567 245.835 372.016 241.225C363.853 234.174 348.996 229.292 336.098 230.784C331.69 231.326 327.282 232.411 323.527 234.58C319.935 236.75 316.996 240.004 316.343 243.801C315.69 247.733 317.323 251.665 316.67 255.597C315.527 262.513 307.69 266.987 302.956 272.682C299.364 276.75 297.241 281.767 296.915 286.784C296.588 292.615 299.037 298.987 305.078 301.971C311.935 305.225 320.588 303.055 328.098 304.682C335.935 306.31 341.812 311.462 348.833 314.716C359.608 319.733 373.649 315.53 380.016 307.123C382.955 303.326 383.444 298.716 385.893 294.648C387.526 292.072 390.465 289.496 393.077 287.733C396.832 285.021 401.73 282.987 403.852 279.326C405.158 277.021 405.322 274.309 404.669 271.869C403.689 268.479 401.077 265.496 397.485 263.733C393.567 261.564 389.322 263.055 386.71 259.394Z" stroke="url(#paint12_linear)" stroke-width="2" stroke-miterlimit="10"/>
<path d="M381.322 268.208C378.056 263.733 374.628 258.445 370.873 255.191C365.485 250.445 354.547 246.784 345.241 247.869C342.139 248.275 338.873 249.089 336.261 250.58C333.649 252.072 331.69 254.513 331.2 257.089C330.71 259.801 331.853 262.648 331.363 265.496C330.547 270.377 324.996 273.631 321.568 277.564C319.119 280.547 317.486 284.072 317.323 287.598C316.996 291.801 318.792 296.276 323.037 298.309C327.935 300.615 333.975 298.987 339.363 300.208C344.914 301.428 349.159 304.954 354.057 307.259C361.73 310.784 371.689 307.801 376.261 301.835C378.383 299.123 378.709 295.869 380.505 293.021C381.648 291.259 383.771 289.36 385.567 288.004C388.342 286.106 391.771 284.615 393.24 282.038C394.219 280.411 394.219 278.513 393.73 276.75C393.077 274.445 391.117 272.275 388.669 270.92C386.22 269.699 383.281 270.648 381.322 268.208Z" stroke="url(#paint13_linear)" stroke-width="2" stroke-miterlimit="10"/>
<path d="M376.097 276.886C374.138 274.309 371.689 270.784 369.893 269.157C367.118 266.852 360.261 264.14 354.71 264.818C352.751 265.089 350.955 265.496 349.486 266.445C348.016 267.394 346.71 268.75 346.384 270.377C346.057 272.004 346.71 273.767 346.547 275.394C346.057 278.242 342.792 280.14 340.669 282.581C339.2 284.343 338.22 286.377 338.22 288.547C338.057 290.987 339.037 293.699 341.649 294.92C344.588 296.276 348.179 295.326 351.445 296.004C354.71 296.682 357.322 298.852 360.261 300.208C364.832 302.242 370.71 300.479 373.485 296.953C374.791 295.326 374.955 293.428 375.934 291.665C376.587 290.581 377.893 289.496 379.036 288.682C380.669 287.598 382.628 286.648 383.607 285.157C384.097 284.208 384.261 282.987 383.934 282.038C383.607 280.682 382.465 279.326 380.995 278.648C379.036 277.699 377.24 278.377 376.097 276.886Z" stroke="url(#paint14_linear)" stroke-width="2" stroke-miterlimit="10"/>
<path d="M370.71 285.564C370.057 284.75 368.751 283.123 368.751 283.123C368.751 283.123 365.649 281.496 363.853 281.767C363.2 281.903 362.71 282.038 362.22 282.309C361.73 282.581 361.404 282.987 361.241 283.53C361.077 284.072 361.404 284.614 361.241 285.157C361.077 286.106 360.098 286.648 359.445 287.462C358.955 288.004 358.628 288.682 358.628 289.36C358.628 290.174 358.955 290.987 359.771 291.394C360.751 291.801 361.894 291.53 362.873 291.801C363.853 292.072 364.669 292.75 365.649 293.157C367.118 293.835 368.914 293.292 369.894 292.208C370.22 291.665 370.383 291.123 370.71 290.581C370.873 290.174 371.363 289.903 371.689 289.631C372.179 289.225 372.832 288.953 373.159 288.547C373.322 288.275 373.322 287.869 373.322 287.597C373.159 287.191 372.832 286.784 372.342 286.513C371.689 285.835 371.2 285.97 370.71 285.564Z" stroke="url(#paint15_linear)" stroke-width="2" stroke-miterlimit="10"/>
<defs>
<linearGradient id="paint0_linear" x1="290.816" y1="25.9703" x2="290.816" y2="410.979" gradientUnits="userSpaceOnUse">
<stop stop-color="#D5EEF4" stop-opacity="0"/>
<stop offset="1" stop-color="#D5EEF4"/>
</linearGradient>
<linearGradient id="paint1_linear" x1="295.924" y1="43.0522" x2="295.924" y2="403.226" gradientUnits="userSpaceOnUse">
<stop stop-color="#D5EEF4" stop-opacity="0"/>
<stop offset="1" stop-color="#D5EEF4"/>
</linearGradient>
<linearGradient id="paint2_linear" x1="300.942" y1="60.1715" x2="300.942" y2="395.39" gradientUnits="userSpaceOnUse">
<stop stop-color="#D5EEF4" stop-opacity="0"/>
<stop offset="1" stop-color="#D5EEF4"/>
</linearGradient>
<linearGradient id="paint3_linear" x1="306.292" y1="77.3402" x2="306.292" y2="387.909" gradientUnits="userSpaceOnUse">
<stop stop-color="#D5EEF4" stop-opacity="0"/>
<stop offset="1" stop-color="#D5EEF4"/>
</linearGradient>
<linearGradient id="paint4_linear" x1="310.933" y1="94.2869" x2="310.933" y2="379.53" gradientUnits="userSpaceOnUse">
<stop stop-color="#D5EEF4" stop-opacity="0"/>
<stop offset="1" stop-color="#D5EEF4"/>
</linearGradient>
<linearGradient id="paint5_linear" x1="315.869" y1="111.32" x2="315.869" y2="371.753" gradientUnits="userSpaceOnUse">
<stop stop-color="#D5EEF4" stop-opacity="0"/>
<stop offset="1" stop-color="#D5EEF4"/>
</linearGradient>
<linearGradient id="paint6_linear" x1="320.811" y1="128.36" x2="320.811" y2="364.076" gradientUnits="userSpaceOnUse">
<stop stop-color="#D5EEF4" stop-opacity="0"/>
<stop offset="1" stop-color="#D5EEF4"/>
</linearGradient>
<linearGradient id="paint7_linear" x1="325.733" y1="145.434" x2="325.733" y2="356.24" gradientUnits="userSpaceOnUse">
<stop stop-color="#D5EEF4" stop-opacity="0"/>
<stop offset="1" stop-color="#D5EEF4"/>
</linearGradient>
<linearGradient id="paint8_linear" x1="330.796" y1="162.467" x2="330.796" y2="348.191" gradientUnits="userSpaceOnUse">
<stop stop-color="#D5EEF4" stop-opacity="0"/>
<stop offset="1" stop-color="#D5EEF4"/>
</linearGradient>
<linearGradient id="paint9_linear" x1="336.1" y1="179.371" x2="336.1" y2="340.379" gradientUnits="userSpaceOnUse">
<stop stop-color="#D5EEF4" stop-opacity="0"/>
<stop offset="1" stop-color="#D5EEF4"/>
</linearGradient>
<linearGradient id="paint10_linear" x1="340.986" y1="196.444" x2="340.986" y2="332.467" gradientUnits="userSpaceOnUse">
<stop stop-color="#D5EEF4" stop-opacity="0"/>
<stop offset="1" stop-color="#D5EEF4"/>
</linearGradient>
<linearGradient id="paint11_linear" x1="345.968" y1="213.477" x2="345.968" y2="324.494" gradientUnits="userSpaceOnUse">
<stop stop-color="#D5EEF4" stop-opacity="0"/>
<stop offset="1" stop-color="#D5EEF4"/>
</linearGradient>
<linearGradient id="paint12_linear" x1="350.964" y1="230.515" x2="350.964" y2="316.878" gradientUnits="userSpaceOnUse">
<stop stop-color="#D5EEF4" stop-opacity="0"/>
<stop offset="1" stop-color="#D5EEF4"/>
</linearGradient>
<linearGradient id="paint13_linear" x1="355.668" y1="247.677" x2="355.668" y2="308.77" gradientUnits="userSpaceOnUse">
<stop stop-color="#D5EEF4" stop-opacity="0"/>
<stop offset="1" stop-color="#D5EEF4"/>
</linearGradient>
<linearGradient id="paint14_linear" x1="361.154" y1="264.712" x2="361.154" y2="301.069" gradientUnits="userSpaceOnUse">
<stop stop-color="#D5EEF4" stop-opacity="0"/>
<stop offset="1" stop-color="#D5EEF4"/>
</linearGradient>
<linearGradient id="paint15_linear" x1="365.975" y1="281.736" x2="365.975" y2="293.456" gradientUnits="userSpaceOnUse">
<stop stop-color="#D5EEF4" stop-opacity="0"/>
<stop offset="1" stop-color="#D5EEF4"/>
</linearGradient>
</defs>
</svg>
