<svg width="44" height="44" viewBox="0 0 44 44" fill="none" xmlns="http://www.w3.org/2000/svg">
<rect width="44" height="44" rx="22" fill="url(#paint0_linear)"/>
<path d="M33.2591 15.9966H30.1265V13.0554C30.1265 12.6462 29.7948 12.3145 29.3856 12.3145H10.7409C10.3317 12.3145 10 12.6462 10 13.0554V29.008C10 30.4844 11.2012 31.6856 12.6776 31.6856H31.3223C32.7987 31.6856 34 30.4844 34 29.008V16.7375C34 16.3283 33.6683 15.9966 33.2591 15.9966ZM11.4819 29.008V13.7963H28.6446V16.7374V29.0079C28.6446 29.4375 28.747 29.8434 28.9276 30.2036H12.6776C12.0183 30.2037 11.4819 29.6673 11.4819 29.008ZM31.3223 30.2037C30.6629 30.2037 30.1265 29.6673 30.1265 29.008V17.4785H32.5181V29.008C32.5181 29.6673 31.9816 30.2037 31.3223 30.2037Z" fill="white"/>
<path d="M13.8874 17.7426H26.2388C26.648 17.7426 26.9797 17.4109 26.9797 17.0017C26.9797 16.5925 26.648 16.2607 26.2388 16.2607H13.8874C13.4782 16.2607 13.1465 16.5925 13.1465 17.0017C13.1465 17.4109 13.4781 17.7426 13.8874 17.7426Z" fill="white"/>
<path d="M13.8535 21.4492C13.8535 22.6782 14.8533 23.6781 16.0822 23.6781C17.311 23.6781 18.3108 22.6782 18.3108 21.4492C18.3108 20.2202 17.3111 19.2202 16.0822 19.2202C14.8533 19.2202 13.8535 20.2202 13.8535 21.4492ZM16.8288 21.4492C16.8288 21.8611 16.4939 22.1962 16.0821 22.1962C15.6704 22.1962 15.3353 21.8611 15.3353 21.4492C15.3353 21.0373 15.6703 20.7021 16.0821 20.7021C16.4939 20.7021 16.8288 21.0373 16.8288 21.4492Z" fill="white"/>
<path d="M13.8874 27.7845C14.2966 27.7845 14.6284 27.4528 14.6284 27.0436V26.2176C14.6284 25.8324 14.9419 25.519 15.3273 25.519H16.8365C17.2221 25.519 17.5358 25.8323 17.5358 26.2176V27.0436C17.5358 27.4528 17.8675 27.7845 18.2767 27.7845C18.6859 27.7845 19.0176 27.4528 19.0176 27.0436V26.2176C19.0176 25.0153 18.0392 24.0371 16.8365 24.0371H15.3273C14.1248 24.0371 13.1465 25.0152 13.1465 26.2176V27.0436C13.1465 27.4528 13.4781 27.7845 13.8874 27.7845Z" fill="white"/>
<path d="M26.2389 19.5891H20.5324C20.1232 19.5891 19.7915 19.9209 19.7915 20.33C19.7915 20.7392 20.1232 21.071 20.5324 21.071H26.2389C26.6481 21.071 26.9798 20.7392 26.9798 20.33C26.9798 19.9209 26.6481 19.5891 26.2389 19.5891Z" fill="white"/>
<path d="M26.2389 26.2456H20.5324C20.1232 26.2456 19.7915 26.5773 19.7915 26.9865C19.7915 27.3957 20.1232 27.7275 20.5324 27.7275H26.2389C26.6481 27.7275 26.9798 27.3957 26.9798 26.9865C26.9798 26.5773 26.6481 26.2456 26.2389 26.2456Z" fill="white"/>
<path d="M26.2389 22.9172H20.5324C20.1232 22.9172 19.7915 23.249 19.7915 23.6582C19.7915 24.0674 20.1232 24.3991 20.5324 24.3991H26.2389C26.6481 24.3991 26.9798 24.0674 26.9798 23.6582C26.9798 23.249 26.6481 22.9172 26.2389 22.9172Z" fill="white"/>
<defs>
<linearGradient id="paint0_linear" x1="44" y1="22" x2="2.11219e-07" y2="22" gradientUnits="userSpaceOnUse">
<stop stop-color="#22A660"/>
<stop offset="1" stop-color="#20CF51"/>
</linearGradient>
</defs>
</svg>
