<svg width="91" height="91" viewBox="0 0 91 91" fill="none" xmlns="http://www.w3.org/2000/svg">
<path d="M22.43 71.0289C27.1273 70.7805 30.0971 69.2466 31.2594 66.4626C31.7557 65.2808 31.8068 64.0182 31.6473 62.7925C32.7278 63.3619 34.1117 63.8931 35.5405 63.8931C35.819 63.8931 36.0951 63.8749 36.3736 63.8329C37.8211 63.6136 39.0473 62.7796 39.9158 61.4334C40.3137 60.811 40.1346 59.9826 39.5145 59.5823C38.8945 59.1911 38.0637 59.3683 37.6663 59.9855C37.2058 60.7016 36.6688 61.078 35.9776 61.1879C34.2479 61.4621 32.0027 59.9645 31.277 59.3683C31.042 59.1696 30.7606 59.0941 30.4731 59.0865C29.9701 58.0824 29.4059 57.2378 28.9454 56.7181C23.6248 50.7655 23.4002 45.8705 23.3945 45.7969C23.3778 45.0622 22.8079 44.5745 22.0288 44.4933C21.2936 44.5086 20.706 45.1162 20.718 45.8571C20.7237 46.0945 20.9 51.7357 26.9486 58.5008C28.0726 59.7686 29.7728 63.0963 28.792 65.4408C27.8825 67.6182 24.756 68.2353 22.2939 68.3658C21.5577 68.4078 20.9902 69.0345 21.028 69.7668C21.0662 70.4863 21.6514 71.0399 22.3608 71.0399L22.43 71.0289Z" fill="#292929"/>
<path d="M22.0876 42.7812C22.0799 42.7712 23.8914 42.508 25.7711 46.9596C25.9053 47.284 27.1497 50.1464 29.7059 50.9045C30.0403 51.0038 30.4497 51.0793 30.9155 51.0793C31.7677 51.0793 32.8105 50.8295 33.967 50.026C34.5799 49.6075 34.7299 48.7711 34.3067 48.1677C33.8896 47.5529 33.0522 47.4077 32.4489 47.8271C31.7084 48.3373 31.0545 48.5098 30.4726 48.3373C29.3362 48.0077 28.4849 46.4915 28.2465 45.9293C25.3746 39.1058 21.7235 40.0918 21.3185 40.2193C20.6181 40.4534 20.2021 41.2206 20.4352 41.9252C20.665 42.626 21.3786 43.0062 22.0876 42.7812Z" fill="#292929"/>
<path d="M34.757 35.0884C34.4785 35.7753 34.8029 36.5563 35.4822 36.8372L35.9938 36.938C36.5159 36.938 37.017 36.6285 37.231 36.1121C41.0808 26.8132 37.7393 13.8045 37.5998 13.2557C37.4126 12.5386 36.6898 12.0939 35.9694 12.3027C35.2519 12.4871 34.8239 13.2198 35.0169 13.935C35.0427 14.063 38.2657 26.614 34.757 35.0884Z" fill="#292929"/>
<path d="M33.4128 70.232C32.6877 70.1226 31.9998 70.6137 31.8851 71.3451C31.77 72.0769 32.2711 72.7619 32.9991 72.877C33.055 72.8823 38.0412 73.7216 39.3506 78.7116C39.5078 79.3126 40.0509 79.71 40.6433 79.71L40.9829 79.6627C41.7004 79.4745 42.1227 78.7403 41.9335 78.0319C40.1885 71.3742 33.6884 70.2765 33.4128 70.232Z" fill="#292929"/>
<path d="M35.7047 82.026C32.3126 82.8052 26.9996 76.3386 24.4334 72.0985C24.0474 71.4656 23.2291 71.2673 22.5943 71.649C21.9628 72.0331 21.7588 72.849 22.1395 73.4867C22.8723 74.702 29.1497 84.7609 35.1616 84.7609C35.5385 84.7609 35.9078 84.7193 36.2804 84.641C37.0065 84.4785 37.4555 83.7649 37.3003 83.0416C37.1426 82.3189 36.4299 81.8722 35.7047 82.026Z" fill="#292929"/>
<path d="M21.7432 65.1427C22.4015 65.1427 22.9767 64.6541 23.0679 63.9819C23.1606 63.2487 22.6499 62.5756 21.9167 62.4767C18.9998 62.0893 17.5433 56.9034 17.1941 54.7576C17.8017 45.3866 14.4617 41.9285 14.3155 41.7833C13.8039 41.2703 12.9717 41.2669 12.4486 41.7752C11.9246 42.2815 11.9112 43.128 12.4056 43.6597C12.4333 43.6898 15.0698 46.6071 14.5133 54.7261L14.5257 55.0136C14.584 55.3953 15.9779 64.387 21.5617 65.127L21.7432 65.1427Z" fill="#292929"/>
<path d="M27.6451 41.2587C27.3451 41.9356 27.6503 42.7253 28.3249 43.0262L28.868 43.1409C29.3763 43.1409 29.8693 42.8456 30.0895 42.346C31.4834 39.2051 30.0212 33.6939 29.8478 33.0729L29.7116 32.7485C26.2129 26.8385 30.9407 20.8892 31.1399 20.6394C31.4108 20.3079 31.4748 19.8908 31.3898 19.5025C31.845 20.0294 32.3375 20.5596 32.9122 21.0894C33.1721 21.3268 33.4964 21.4462 33.8232 21.4462C34.1867 21.4462 34.5421 21.301 34.8049 21.0172C35.3079 20.4736 35.2744 19.6252 34.7356 19.1246C32.3046 16.8794 31.1548 14.7594 31.3955 12.9976C31.6941 10.806 34.0611 9.55918 34.1232 9.52622C34.7791 9.19422 35.0461 8.39169 34.7179 7.73294C34.3854 7.07419 33.582 6.80095 32.9203 7.13295C32.7718 7.20747 29.2645 8.99932 28.7514 12.6016C28.4729 14.5397 29.1274 16.5498 30.6618 18.6058C30.121 18.3536 29.4675 18.4635 29.0686 18.9483C28.8183 19.2531 23.0362 26.4754 27.314 33.9514C27.6986 35.4322 28.4634 39.412 27.6451 41.2587Z" fill="#292929"/>
<path d="M40.9003 40.8274C40.4351 42.5333 36.6904 42.5791 34.9425 42.3345C34.2307 42.2576 33.5337 42.7411 33.4291 43.4724C33.3312 44.2038 33.8371 44.8807 34.5703 44.9848C34.8111 45.0187 35.6308 45.1238 36.6904 45.1238C39.0736 45.1238 42.6545 44.594 43.4871 41.5315C43.6763 40.8164 43.2616 40.0836 42.5475 39.8878C41.8343 39.7038 41.0986 40.119 40.9003 40.8274Z" fill="#292929"/>
<path d="M82.6314 44.1173C84.6387 31.7674 79.5622 27.6401 77.7918 26.6016C78.4769 18.518 73.9258 15.0671 72.4449 14.1733C72.3136 12.691 71.8946 11.299 71.1499 10.0145C68.2904 5.10802 61.8911 3.52732 60.9825 3.32239C58.8768 1.12928 56.6316 0 54.2661 0L54.1414 0.00238849C50.0781 0.0692662 46.9754 3.42414 45.5074 5.36646C44.0375 3.42414 40.9349 0.0692662 36.8716 0.00238849L36.7454 0C34.3832 0 32.1361 1.12928 30.0328 3.32239C29.1223 3.52732 22.7254 5.10755 19.8607 10.0145C19.1169 11.2985 18.6908 12.691 18.568 14.1733C17.0871 15.0671 12.5346 18.5175 13.2201 26.5987C11.4584 27.6377 6.37278 31.7631 8.38056 44.1149C7.88518 45.0388 4.76389 51.2001 6.42867 57.1078C6.81657 58.4697 7.46242 59.685 8.28454 60.7909C8.12929 62.3362 7.93534 69.6369 16.9008 76.3438C20.3212 78.9066 23.5442 82.6436 26.4782 87.4402L26.7668 87.777C26.9507 87.9337 30.7551 91 35.3104 91C36.167 91 37.0526 90.8906 37.9435 90.626C41.1078 89.7169 43.6286 87.1455 45.4931 83.0091C47.3542 87.1455 49.8793 89.7169 53.0417 90.626C53.936 90.8906 54.8197 91 55.6743 91C60.2306 90.9976 64.0336 87.9337 64.2228 87.777L64.5108 87.4402C67.4439 82.6465 70.6631 78.9109 74.0887 76.3438C83.0375 69.6464 82.8526 62.3486 82.6978 60.7933C83.5319 59.6879 84.1749 58.4697 84.5566 57.1078C86.2491 51.2087 83.133 45.0517 82.6314 44.1173ZM43.9539 79.6996C42.3451 84.4149 40.0894 87.2252 37.2308 88.0536C33.4159 89.1728 29.4791 86.4514 28.6389 85.8265C25.5653 80.8441 22.1555 76.9318 18.5131 74.1999C13.1213 70.1633 11.5296 66.0207 11.0848 63.4536C11.5147 63.7598 11.9251 64.0736 12.4104 64.3478L13.0625 64.5126C13.5311 64.5126 13.9859 64.2676 14.2314 63.8276C14.5964 63.1841 14.3661 62.3687 13.7208 62.0057C7.14952 58.3331 8.32944 51.6439 9.6522 47.914L10.2732 48.086L10.5732 48.0526C11.296 47.8873 11.7431 47.1665 11.5769 46.4446C9.05507 35.5226 11.9509 31.1191 13.6945 29.5404C14.027 31.0709 14.5099 32.7175 15.2227 34.5294C15.4314 35.0573 15.9378 35.375 16.4671 35.375L16.9624 35.2823C17.6508 35.009 17.9885 34.2299 17.7153 33.5482C13.801 23.6594 16.7962 19.0902 18.7701 17.3127C18.8895 17.9557 19.0099 18.5987 19.2296 19.2679C19.4092 19.8326 19.9366 20.1932 20.5041 20.1932L20.913 20.1292C21.62 19.9018 22.0003 19.1461 21.771 18.443C20.892 15.7229 21.0277 13.3431 22.1765 11.3606C23.3617 9.30985 25.4488 7.95845 27.2564 7.11531C27.1413 7.6446 27.3491 8.20924 27.8363 8.51783C28.4526 8.91097 29.2847 8.7347 29.6807 8.10892C31.9747 4.49514 34.3569 2.66651 36.7502 2.66651L36.8195 2.6689C40.3459 2.7224 43.2073 6.66054 43.9477 7.77931L43.9539 79.6996ZM72.507 74.2003C68.8603 76.9347 65.4543 80.847 62.3808 85.8323C61.5429 86.4595 57.6143 89.1685 53.8032 88.0598C50.946 87.2334 48.6794 84.4264 47.0666 79.7077V7.78409C48.1286 6.13746 50.9876 2.73291 54.1901 2.6818L54.2598 2.67893C56.6574 2.67893 59.0306 4.51281 61.3341 8.12134C61.7316 8.7476 62.5656 8.92626 63.179 8.53025C63.6658 8.22309 63.8702 7.65702 63.7594 7.12773C65.5708 7.97325 67.6493 9.3218 68.8359 11.3702C69.9862 13.3517 70.12 15.7354 69.2415 18.453C69.0136 19.1571 69.3982 19.9114 70.0985 20.1393L70.5088 20.2033C71.0768 20.2033 71.5989 19.8421 71.7819 19.2775C72.0012 18.6082 72.1215 17.9629 72.2443 17.3208C74.2129 19.1012 77.2133 23.6666 73.301 33.5573C73.0292 34.2423 73.366 35.021 74.0534 35.2918L74.5454 35.3859C75.078 35.3859 75.5801 35.0673 75.7898 34.5399C76.5102 32.7295 76.986 31.0843 77.3204 29.5547C79.0616 31.1335 81.9574 35.5345 79.439 46.4542C79.2732 47.1755 79.7203 47.8916 80.4431 48.0617L80.7426 48.0956L81.3416 47.9355C82.116 50.1392 82.8521 53.355 81.9999 56.3817C81.3359 58.7501 79.7518 60.6452 77.3003 62.0119C76.6578 62.373 76.4242 63.1889 76.7877 63.8367C77.0337 64.2757 77.4923 64.5217 77.9586 64.5217L78.6121 64.354C79.096 64.0822 79.5034 63.7665 79.93 63.4631C79.4934 66.026 77.8941 70.1695 72.507 74.2003Z" fill="#292929"/>
<path d="M56.906 9.52955C56.9299 9.54245 59.3094 10.7878 59.6222 12.9824C59.8812 14.7455 58.7232 16.8722 56.2879 19.1251C55.7486 19.6286 55.7123 20.4741 56.2167 21.0177C56.4847 21.3015 56.8368 21.4467 57.2008 21.4467C57.5242 21.4467 57.8457 21.3273 58.1103 21.0898C58.6817 20.5582 59.1732 20.0294 59.6332 19.5053C59.5468 19.8932 59.607 20.3107 59.8836 20.6422C59.9342 20.7015 64.8301 26.8098 61.3109 32.7514L61.1748 33.0729C61.0076 33.6886 59.5415 39.2051 60.9345 42.346C61.1542 42.8452 61.6453 43.1408 62.1584 43.1408L62.6991 43.0262C63.3736 42.7253 63.6798 41.9328 63.3789 41.2587C62.6404 39.5963 63.1778 35.9692 63.7109 33.9538C67.9873 26.4754 62.2009 19.2555 61.9491 18.9507C61.5608 18.4687 60.9011 18.356 60.3608 18.6082C61.898 16.5527 62.5515 14.542 62.2735 12.604C61.7643 9.0017 58.2532 7.21033 58.1041 7.13581C57.4435 6.80668 56.6404 7.07657 56.308 7.7358C55.9784 8.39454 56.2449 9.19707 56.906 9.52955Z" fill="#292929"/>
<path d="M68.732 68.3581C66.2694 68.2272 63.1414 67.6177 62.2333 65.4327C61.2564 63.0853 62.9585 59.7577 64.0787 58.4956C70.1297 51.7333 70.2993 46.0845 70.305 45.849C70.3208 45.1129 69.7351 44.5081 69.0028 44.4895C68.2485 44.4517 67.6543 45.0546 67.6285 45.7864C67.6285 45.8385 67.415 50.7449 62.0814 56.7128C61.6157 57.2244 61.0515 58.0742 60.5523 59.0755C60.27 59.086 59.9848 59.1643 59.745 59.3631C59.0218 59.9588 56.789 61.4487 55.0502 61.1831C54.3561 61.0728 53.8163 60.6858 53.3615 59.9774C52.9616 59.3564 52.1281 59.1753 51.5137 59.5752C50.8918 59.975 50.7069 60.8038 51.111 61.4262C51.9785 62.7781 53.2048 63.6084 54.6527 63.8281C54.9298 63.8725 55.2078 63.885 55.482 63.885C56.9137 63.885 58.2942 63.3576 59.3762 62.7848C59.2138 64.0106 59.2711 65.2674 59.7665 66.4521C60.9263 69.239 63.8957 70.7705 68.5949 71.0213L68.6613 71.0237C69.375 71.0237 69.9597 70.47 69.9993 69.7506C70.0361 69.0274 69.4691 68.3968 68.732 68.3581Z" fill="#292929"/>
<path d="M60.5528 48.3425C59.9657 48.5077 59.3218 48.3477 58.5765 47.8304C57.9761 47.4081 57.1334 47.5586 56.7154 48.1705C56.3008 48.7772 56.446 49.6107 57.0551 50.0316C58.2168 50.8317 59.2539 51.0821 60.1104 51.0821C60.5762 51.0821 60.9846 51.009 61.319 50.9101C63.8728 50.1572 65.1215 47.2872 65.2515 46.9734C67.0734 42.6512 68.7993 42.7935 68.9269 42.7844C69.6195 42.9832 70.3227 42.5972 70.5525 41.9203C70.7823 41.2157 70.4034 40.459 69.7089 40.2264C69.299 40.0921 65.6542 39.1062 62.7813 45.9406C62.5443 46.4919 61.6873 48.0081 60.5528 48.3425Z" fill="#292929"/>
<path d="M55.0264 36.9409L55.5395 36.8401C56.2207 36.5592 56.5455 35.7777 56.2627 35.0912C52.7602 26.6336 55.9814 14.0658 56.0067 13.9402C56.1958 13.2232 55.7659 12.4923 55.0498 12.3079C54.3309 12.1039 53.6067 12.5482 53.4238 13.2609C53.2776 13.8098 49.9461 26.818 53.7935 36.1173C54.0056 36.6309 54.4957 36.9409 55.0264 36.9409Z" fill="#292929"/>
<path d="M58.0272 72.8772C58.7562 72.762 59.2535 72.077 59.1379 71.3519C59.0218 70.6186 58.3172 70.128 57.6102 70.2374C57.3331 70.2818 50.8359 71.3796 49.0823 78.0372C48.8936 78.7509 49.3197 79.4804 50.031 79.6686L50.3716 79.7159C50.9692 79.7159 51.5133 79.3184 51.6657 78.717C52.9665 73.7872 57.7946 72.9135 58.0272 72.8772Z" fill="#292929"/>
<path d="M68.4231 71.649C67.8007 71.2697 66.9695 71.4684 66.5849 72.0985C64.0182 76.3385 58.6914 82.8161 55.3141 82.026C54.5875 81.8722 53.8757 82.3184 53.7147 83.0411C53.5518 83.7668 54.0066 84.478 54.7279 84.6428C55.1043 84.7188 55.4703 84.7632 55.8519 84.7632C61.8652 84.7632 68.1403 74.7043 68.8693 73.4886C69.2596 72.8509 69.0585 72.0302 68.4231 71.649Z" fill="#292929"/>
<path d="M78.6047 43.6621C79.1139 43.1381 79.1068 42.3002 78.5918 41.7828C78.0721 41.2612 77.2222 41.2612 76.6987 41.7828C76.5525 41.9281 73.2119 45.3861 73.8234 54.7571C73.4947 56.7854 72.0096 62.0893 69.097 62.4762C68.3714 62.5751 67.8536 63.2482 67.9482 63.9815C68.0394 64.6531 68.615 65.1423 69.2723 65.1423L69.451 65.1327C75.0358 64.3865 76.4273 55.3944 76.4875 55.0127L76.4995 54.7304C75.9511 46.6749 78.5364 43.7424 78.6047 43.6621Z" fill="#292929"/>
<path d="M56.4546 44.9877C57.1836 44.8831 57.6952 44.2062 57.5944 43.4753C57.4836 42.7406 56.7909 42.2414 56.0825 42.337C54.9489 42.5008 50.6381 42.7148 50.1179 40.8303C49.9244 40.1166 49.1921 39.7058 48.4761 39.8916C47.76 40.0865 47.3415 40.8222 47.535 41.5344C48.3686 44.597 51.947 45.1262 54.3336 45.1262C55.3841 45.1239 56.2134 45.0192 56.4546 44.9877Z" fill="#292929"/>
</svg>
