<svg width="48" height="48" viewBox="0 0 48 48" fill="none" xmlns="http://www.w3.org/2000/svg">
<g clip-path="url(#clip0)">
<path d="M23.7 4.3C30 4.3 30.8 4.3 33.3 4.4C35.6 4.5 36.9 4.9 37.7 5.2C38.8 5.6 39.6 6.1 40.4 7C41.2 7.8 41.7 8.6 42.2 9.7C42.5 10.5 42.9 11.8 43 14.1C43.1 16.6 43.1 17.3 43.1 23.7C43.1 30 43.1 30.8 43 33.3C42.9 35.6 42.5 36.9 42.2 37.7C41.8 38.8 41.3 39.6 40.4 40.4C39.6 41.2 38.8 41.7 37.7 42.2C36.9 42.5 35.6 42.9 33.3 43C30.8 43.1 30.1 43.1 23.7 43.1C17.4 43.1 16.6 43.1 14.1 43C11.8 42.9 10.5 42.5 9.7 42.2C8.6 41.8 7.8 41.3 7 40.4C6.2 39.6 5.7 38.8 5.2 37.7C4.9 36.9 4.5 35.6 4.4 33.3C4.3 30.8 4.3 30.1 4.3 23.7C4.3 17.4 4.3 16.6 4.4 14.1C4.5 11.8 4.9 10.5 5.2 9.7C5.6 8.6 6.2 7.8 7 7C7.8 6.2 8.6 5.7 9.7 5.2C10.5 4.9 11.8 4.5 14.1 4.4C16.6 4.3 17.3 4.3 23.7 4.3ZM23.7 0C17.3 0 16.5 0 13.9 0.1C11.4 0.2 9.7 0.6 8.2 1.2C6.6 1.8 5.3 2.7 4 4C2.7 5.3 1.8 6.6 1.2 8.2C0.6 9.7 0.2 11.4 0.1 13.9C0 16.4 0 17.2 0 23.7C0 30.2 0 30.9 0.1 33.5C0.2 36 0.6 37.7 1.2 39.2C1.8 40.7 2.7 42 4 43.3C5.3 44.6 6.6 45.4 8.2 46C9.7 46.6 11.4 47 13.9 47.1C16.4 47.2 17.2 47.2 23.7 47.2C30.1 47.2 30.9 47.2 33.5 47.1C36 47 37.7 46.6 39.2 46C40.8 45.4 42.1 44.6 43.4 43.3C44.7 42 45.5 40.7 46.1 39.1C46.7 37.6 47.1 35.9 47.2 33.4C47.3 30.9 47.3 30.1 47.3 23.6C47.3 17.1 47.3 16.4 47.2 13.8C47.1 11.3 46.7 9.6 46.1 8.1C45.5 6.5 44.7 5.2 43.4 3.9C42.1 2.6 40.8 1.8 39.2 1.2C37.7 0.6 36 0.2 33.5 0.1C30.9 0 30.1 0 23.7 0Z" fill="url(#paint0_linear)"/>
<path d="M23.7001 11.5C17.0001 11.5 11.6001 16.9 11.6001 23.6C11.6001 30.3 17.0001 35.7 23.7001 35.7C30.4001 35.7 35.8001 30.3 35.8001 23.6C35.8001 16.9 30.4001 11.5 23.7001 11.5ZM23.7001 31.5C19.3001 31.5 15.8001 28 15.8001 23.6C15.8001 19.2 19.3001 15.7 23.7001 15.7C28.1001 15.7 31.6001 19.2 31.6001 23.6C31.5001 28 28.0001 31.5 23.7001 31.5Z" fill="url(#paint1_linear)"/>
<path d="M39.1 11C39.1 12.6 37.8 13.8 36.3 13.8C34.7 13.8 33.5 12.5 33.5 11C33.5 9.39995 34.8 8.19995 36.3 8.19995C37.9 8.19995 39.1 9.49995 39.1 11Z" fill="url(#paint2_linear)"/>
</g>
<defs>
<linearGradient id="paint0_linear" x1="23.65" y1="0" x2="23.65" y2="47.2" gradientUnits="userSpaceOnUse">
<stop stop-color="#5449D1"/>
<stop offset="0.395833" stop-color="#A633AD"/>
<stop offset="0.729167" stop-color="#E42651"/>
<stop offset="1" stop-color="#FDBF5D"/>
</linearGradient>
<linearGradient id="paint1_linear" x1="23.7001" y1="11.5" x2="23.7001" y2="35.7" gradientUnits="userSpaceOnUse">
<stop stop-color="#5449D1"/>
<stop offset="0.395833" stop-color="#A633AD"/>
<stop offset="0.729167" stop-color="#E42651"/>
<stop offset="1" stop-color="#FDBF5D"/>
</linearGradient>
<linearGradient id="paint2_linear" x1="36.3" y1="8.19995" x2="36.3" y2="13.8" gradientUnits="userSpaceOnUse">
<stop stop-color="#5449D1"/>
<stop offset="0.395833" stop-color="#A633AD"/>
<stop offset="0.729167" stop-color="#E42651"/>
<stop offset="1" stop-color="#FDBF5D"/>
</linearGradient>
<clipPath id="clip0">
<rect width="47.3" height="47.3" fill="white"/>
</clipPath>
</defs>
</svg>
