<svg width="84" height="84" viewBox="0 0 84 84" fill="none" xmlns="http://www.w3.org/2000/svg">
<g clip-path="url(#clip0)">
<path d="M50.3539 57.1579C50.8446 57.8214 50.7103 58.7588 50.0473 59.2553C45.6276 62.5649 41.3571 63.7422 37.5068 63.7422C28.2438 63.7422 21.5022 56.9334 21.4115 56.8284C20.8392 56.2325 20.8478 55.2856 21.4465 54.7132C22.0366 54.1381 22.9889 54.1582 23.5554 54.743C24.0284 55.2275 35.3097 66.562 48.2531 56.8576C48.9137 56.3606 49.8573 56.5007 50.3539 57.1579ZM68.7485 40.5426C64.9601 40.1262 61.8606 40.9485 59.5353 43.0036C55.5771 46.5047 55.4605 52.2652 55.4605 52.5103C55.449 53.3283 56.1091 54.0056 56.9323 54.0176C56.9386 54.0176 56.9501 54.0176 56.9558 54.0176C57.7651 54.0176 58.4339 53.3633 58.4516 52.5511C58.4516 52.4988 58.5682 47.8479 61.5272 45.2367C63.2009 43.7745 65.5381 43.1945 68.4184 43.5203C69.2709 43.5903 69.9809 43.018 70.0716 42.201C70.1651 41.3764 69.5755 40.6318 68.7485 40.5426ZM14.7692 56.3314C12.3183 55.7 9.82374 54.765 8.79857 54.1169C8.97703 53.4626 9.31571 52.5804 9.865 52.0781C10.4786 51.5259 10.5342 50.5823 9.97582 49.9692C9.41502 49.3561 8.47428 49.2943 7.86071 49.8584C6.079 51.4655 5.71681 54.1731 5.67891 54.4796C5.6319 54.8533 5.73744 55.2333 5.95907 55.5374C7.26777 57.3426 12.029 58.7156 14.0213 59.2294C14.1499 59.2644 14.2722 59.2759 14.3951 59.2759C15.0667 59.2759 15.6716 58.8322 15.8438 58.1543C16.0573 57.3474 15.5723 56.5328 14.7692 56.3314ZM83.9822 50.6116C83.24 66.3624 72.7331 73.0805 48.8706 73.0805C48.8643 73.0805 48.8643 73.0805 48.8643 73.0805C44.6288 73.0805 39.8906 72.8526 34.7757 72.4089C14.8071 70.6857 1.03085 57.5643 0.455179 57.0087C0.125127 56.6873 -0.0413376 56.2258 0.00807413 55.7701C2.02388 37.0665 23.3132 13.3729 24.2184 12.3693C25.5185 11.3355 27.3208 10.9191 29.9382 10.9191C33.2742 10.9191 36.8088 11.5955 36.9604 11.6214C37.2175 11.6722 37.4569 11.7898 37.6555 11.9606C42.4547 16.1275 41.8737 21.285 41.8445 21.5023C41.8008 21.8501 41.6401 22.1701 41.383 22.4095L37.1297 26.3806C36.8525 26.6421 36.4874 26.785 36.1046 26.785H28.7379C24.4525 34.2093 22.9423 39.5693 22.5159 43.1288C26.0418 40.1229 30.7801 38.4021 35.8186 38.4021C42.1693 38.4021 47.9207 41.0924 51.4318 45.4929C53.5906 38.7293 59.9354 33.8658 67.3141 33.8658C71.941 33.8658 76.4279 35.7818 79.6176 39.1269C82.6327 42.2893 84.187 46.3641 83.9822 50.6116ZM80.9968 50.4715C81.1604 47.0506 79.8983 43.7568 77.4531 41.1936C74.8247 38.439 71.1265 36.8602 67.3083 36.8602C60.1312 36.8602 54.1432 42.4745 53.6664 49.6387C53.6198 50.3257 53.1171 50.8889 52.4455 51.0117C51.7532 51.1139 51.096 50.7833 50.8125 50.1587C48.4258 44.9182 42.4058 41.3913 35.81 41.3913C30.2366 41.3913 25.1361 43.8086 22.1657 47.8541C21.8035 48.3569 21.1664 48.5728 20.5706 48.4183C19.9776 48.2513 19.5363 47.7438 19.4749 47.1297C19.0398 43.0578 19.9157 35.8308 26.5849 24.5279C26.8535 24.0722 27.3443 23.7916 27.8758 23.7916H35.5145L38.8913 20.6383C38.874 19.5561 38.5526 16.8792 35.9875 14.482C35.006 14.3126 32.3569 13.9049 29.9353 13.9049C27.2829 13.9049 26.4357 14.3985 26.2428 14.552C26.2193 14.6134 5.49134 37.6887 3.07256 55.3388C5.76574 57.7163 18.2684 67.9839 35.0353 69.4298C40.0685 69.8654 44.7219 70.0875 48.8696 70.0875C76.2878 70.0899 80.5176 60.6604 80.9968 50.4715Z" fill="#292929"/>
</g>
<defs>
<clipPath id="clip0">
<rect width="84" height="84" fill="white"/>
</clipPath>
</defs>
</svg>
